<?xml version="1.0" encoding="UTF-8"?>
<svg id="Layer_1" xmlns="http://www.w3.org/2000/svg" version="1.1" viewBox="0 0 1190.55 841.89">
  <!-- Generator: Adobe Illustrator 29.7.1, SVG Export Plug-In . SVG Version: 2.1.1 Build 8)  -->
  <defs>
    <style>
      .st0, .st1 {
        fill: #fff;
      }

      .st1 {
        stroke: #231f20;
        stroke-miterlimit: 10;
        stroke-width: 2.13px;
      }

      .st2 {
        fill: #231f20;
        font-family: VictorMono-BoldItalic, 'Victor Mono';
        font-size: 12px;
        font-style: italic;
        font-weight: 700;
      }
    </style>
  </defs>
  <g>
    <g>
      <line class="st1" x1="257.41" y1="368.57" x2="399.14" y2="368.57"/>
      <line class="st1" x1="257.41" y1="368.57" x2="328.27" y2="245.83"/>
      <line class="st1" x1="399.14" y1="368.57" x2="328.27" y2="245.83"/>
    </g>
    <g>
      <line class="st1" x1="399.14" y1="368.57" x2="540.87" y2="368.57"/>
      <line class="st1" x1="399.14" y1="368.57" x2="470" y2="245.83"/>
      <line class="st1" x1="540.87" y1="368.57" x2="470" y2="245.83"/>
    </g>
    <g>
      <line class="st1" x1="540.87" y1="368.57" x2="682.6" y2="368.57"/>
      <line class="st1" x1="540.87" y1="368.57" x2="611.74" y2="245.83"/>
      <line class="st1" x1="682.6" y1="368.57" x2="611.74" y2="245.83"/>
    </g>
    <g>
      <line class="st1" x1="682.6" y1="368.57" x2="824.34" y2="368.57"/>
      <line class="st1" x1="682.6" y1="368.57" x2="753.47" y2="245.83"/>
      <line class="st1" x1="824.34" y1="368.57" x2="753.47" y2="245.83"/>
    </g>
    <g>
      <line class="st1" x1="328.27" y1="245.83" x2="470" y2="245.83"/>
      <line class="st1" x1="328.27" y1="245.83" x2="399.14" y2="123.08"/>
      <line class="st1" x1="470" y1="245.83" x2="399.14" y2="123.08"/>
    </g>
    <g>
      <line class="st1" x1="470" y1="245.83" x2="611.74" y2="245.83"/>
      <line class="st1" x1="470" y1="245.83" x2="540.87" y2="123.08"/>
      <line class="st1" x1="611.74" y1="245.83" x2="540.87" y2="123.08"/>
    </g>
    <g>
      <line class="st1" x1="611.74" y1="245.83" x2="753.47" y2="245.83"/>
      <line class="st1" x1="611.74" y1="245.83" x2="682.6" y2="123.08"/>
      <line class="st1" x1="753.47" y1="245.83" x2="682.6" y2="123.08"/>
    </g>
    <g>
      <line class="st1" x1="257.41" y1="368.57" x2="399.14" y2="368.57"/>
      <line class="st1" x1="257.41" y1="368.57" x2="328.27" y2="491.32"/>
      <line class="st1" x1="399.14" y1="368.57" x2="328.27" y2="491.32"/>
    </g>
    <g>
      <line class="st1" x1="399.14" y1="368.57" x2="540.87" y2="368.57"/>
      <line class="st1" x1="399.14" y1="368.57" x2="470" y2="491.32"/>
      <line class="st1" x1="540.87" y1="368.57" x2="470" y2="491.32"/>
    </g>
    <g>
      <line class="st1" x1="540.87" y1="368.57" x2="682.6" y2="368.57"/>
      <line class="st1" x1="540.87" y1="368.57" x2="611.74" y2="491.32"/>
      <line class="st1" x1="682.6" y1="368.57" x2="611.74" y2="491.32"/>
    </g>
    <g>
      <line class="st1" x1="682.6" y1="368.57" x2="824.34" y2="368.57"/>
      <line class="st1" x1="682.6" y1="368.57" x2="753.47" y2="491.32"/>
      <line class="st1" x1="824.34" y1="368.57" x2="753.47" y2="491.32"/>
    </g>
    <g>
      <line class="st1" x1="328.27" y1="491.32" x2="470" y2="491.32"/>
      <line class="st1" x1="328.27" y1="491.32" x2="399.14" y2="614.06"/>
      <line class="st1" x1="470" y1="491.32" x2="399.14" y2="614.06"/>
    </g>
    <g>
      <line class="st1" x1="470" y1="491.32" x2="611.74" y2="491.32"/>
      <line class="st1" x1="470" y1="491.32" x2="540.87" y2="614.06"/>
      <line class="st1" x1="611.74" y1="491.32" x2="540.87" y2="614.06"/>
    </g>
    <g>
      <line class="st1" x1="611.74" y1="491.32" x2="753.47" y2="491.32"/>
      <line class="st1" x1="611.74" y1="491.32" x2="682.6" y2="614.06"/>
      <line class="st1" x1="753.47" y1="491.32" x2="682.6" y2="614.06"/>
    </g>
    <line class="st1" x1="399.14" y1="614.06" x2="682.6" y2="614.06"/>
    <line class="st1" x1="398.54" y1="123.08" x2="683" y2="123.08"/>
  </g>
  <g>
    <rect class="st0" x="370.85" y="603.25" width="56.57" height="21.62"/>
    <text class="st2" transform="translate(375.8 617.58)"><tspan x="0" y="0">(n n p)</tspan></text>
  </g>
  <g>
    <rect class="st0" x="299.99" y="478.87" width="56.57" height="21.62"/>
    <text class="st2" transform="translate(304.97 493.95)"><tspan x="0" y="0">(n o p)</tspan></text>
  </g>
  <g>
    <rect class="st0" x="299.99" y="234.05" width="56.57" height="21.62"/>
    <text class="st2" transform="translate(305.58 248.43)"><tspan x="0" y="0">(n p o)</tspan></text>
  </g>
  <g>
    <rect class="st0" x="370.85" y="114.82" width="56.57" height="21.62"/>
    <text class="st2" transform="translate(376.63 128.55)"><tspan x="0" y="0">(n p n)</tspan></text>
  </g>
  <g>
    <rect class="st0" x="229.12" y="357.76" width="56.57" height="21.62"/>
    <text class="st2" transform="translate(233.89 370.99)"><tspan x="0" y="0">(n p p)</tspan></text>
  </g>
  <g>
    <rect class="st0" x="512.49" y="605.99" width="56.57" height="21.62"/>
    <text class="st2" transform="translate(517.51 619.94)"><tspan x="0" y="0">(o n p)</tspan></text>
  </g>
  <g>
    <rect class="st0" x="441.72" y="474.39" width="56.57" height="33.86"/>
    <text class="st2" transform="translate(447.5 502.49)"><tspan x="0" y="0">(n n o)</tspan></text>
    <text class="st2" transform="translate(447.5 487.01)"><tspan x="0" y="0">(o o p)</tspan></text>
  </g>
  <g>
    <rect class="st0" x="441.72" y="232.48" width="56.57" height="33.86"/>
    <text class="st2" transform="translate(446.93 261.62)"><tspan x="0" y="0">(n o n)</tspan></text>
    <text class="st2" transform="translate(447.95 244.86)"><tspan x="0" y="0">(o p o)</tspan></text>
  </g>
  <g>
    <rect class="st0" x="512.87" y="112.17" width="56.57" height="21.62"/>
    <text class="st2" transform="translate(518.81 125.63)"><tspan x="0" y="0">(o p n)</tspan></text>
  </g>
  <g>
    <rect class="st0" x="370.25" y="352.64" width="56.57" height="33.86"/>
    <text class="st2" transform="translate(375.63 380.88)"><tspan x="0" y="0">(n o o)</tspan></text>
    <text class="st2" transform="translate(377.08 365.14)"><tspan x="0" y="0">(o p p)</tspan></text>
  </g>
  <g>
    <rect class="st0" x="724.49" y="484.43" width="56.57" height="21.62"/>
    <text class="st2" transform="translate(729.43 498.21)"><tspan x="0" y="0">(p n o)</tspan></text>
  </g>
  <g>
    <rect class="st0" x="796.05" y="357.3" width="56.57" height="21.62"/>
    <text class="st2" transform="translate(800.33 372.23)"><tspan x="0" y="0">(p n n)</tspan></text>
  </g>
  <g>
    <rect class="st0" x="654.72" y="603.25" width="56.57" height="21.62"/>
    <text class="st2" transform="translate(660.57 616.8)"><tspan x="0" y="0">(p n p)</tspan></text>
  </g>
  <g>
    <rect class="st0" x="654.72" y="351.64" width="56.57" height="33.86"/>
    <text class="st2" transform="translate(659.42 381.4)"><tspan x="0" y="0">(o n n)</tspan></text>
    <text class="st2" transform="translate(659.42 364.12)"><tspan x="0" y="0">(p o o)</tspan></text>
  </g>
  <g>
    <rect class="st0" x="725.18" y="234.05" width="56.57" height="21.62"/>
    <text class="st2" transform="translate(730.27 248.86)"><tspan x="0" y="0">(p o n)</tspan></text>
  </g>
  <g>
    <rect class="st0" x="583.45" y="474.39" width="56.57" height="33.86"/>
    <text class="st2" transform="translate(588.72 502.66)"><tspan x="0" y="0">(o n o)</tspan></text>
    <text class="st2" transform="translate(588.72 487.69)"><tspan x="0" y="0">(p o p)</tspan></text>
  </g>
  <g>
    <rect class="st0" x="585.88" y="228.9" width="56.57" height="33.86"/>
    <text class="st2" transform="translate(590.97 257.46)"><tspan x="0" y="0">(o o n)</tspan></text>
    <text class="st2" transform="translate(590.97 240.84)"><tspan x="0" y="0">(p p o)</tspan></text>
  </g>
  <g>
    <rect class="st0" x="654.32" y="112.27" width="56.57" height="21.62"/>
    <text class="st2" transform="translate(659.44 125.76)"><tspan x="0" y="0">(p p n)</tspan></text>
  </g>
  <g>
    <rect class="st0" x="514.42" y="345.14" width="52.71" height="48.86"/>
    <text class="st2" transform="translate(517.84 357.26)"><tspan x="0" y="0">(n n n)</tspan></text>
    <text class="st2" transform="translate(517.84 372.84)"><tspan x="0" y="0">(o o o)</tspan></text>
    <text class="st2" transform="translate(517.84 388.88)"><tspan x="0" y="0">(p p p)</tspan></text>
  </g>
</svg>